HIERARCHY
ROOT hip
{
	OFFSET 0.000000 0.000000 0.000000 
	CHANNELS 6 Xposition Yposition Zposition Xrotation Zrotation Yrotation
	JOINT abdomen
	{
		OFFSET 0.000000 3.402643 0.000000 
		CHANNELS 3 Xrotation Zrotation Yrotation
		JOINT chest
		{
			OFFSET 0.000000 8.438565 -0.680529 
			CHANNELS 3 Xrotation Zrotation Yrotation
			JOINT neck
			{
				OFFSET 0.000000 10.207942 -0.272212 
				CHANNELS 3 Xrotation Zrotation Yrotation
				JOINT head
				{
					OFFSET 0.000000 3.130431 0.000000 
					CHANNELS 3 Xrotation Zrotation Yrotation
					End Site
					{
						OFFSET 0.000000 3.130435 0.000000 
					}
				}
			}
			JOINT lCollar
			{
				OFFSET 3.470700 6.669187 -0.816635 
				CHANNELS 3 Yrotation Zrotation Xrotation
				JOINT lShldr
				{
					OFFSET 3.198488 0.000000 0.000000 
					CHANNELS 3 Zrotation Yrotation Xrotation
					JOINT lForeArm
					{
						OFFSET 10.139888 0.000000 0.000000 
						CHANNELS 3 Yrotation Zrotation Xrotation
						JOINT lHand
						{
							OFFSET 8.370511 0.000000 0.000000 
							CHANNELS 3 Zrotation Yrotation Xrotation
							End Site
							{
								OFFSET 4.083176 0.000000 0.000000 
							}
						}
					}
				}
			}
			JOINT rCollar
			{
				OFFSET -3.470700 6.669187 -0.816635 
				CHANNELS 3 Yrotation Zrotation Xrotation
				JOINT rShldr
				{
					OFFSET -3.198488 0.000000 0.000000 
					CHANNELS 3 Zrotation Yrotation Xrotation
					JOINT rForeArm
					{
						OFFSET -10.139888 0.000000 0.000000 
						CHANNELS 3 Yrotation Zrotation Xrotation
						JOINT rHand
						{
							OFFSET -8.370511 0.000000 0.000000 
							CHANNELS 3 Zrotation Yrotation Xrotation
							End Site
							{
								OFFSET -4.083176 0.000000 0.000000 
							}
						}
					}
				}
			}
		}
	}
	JOINT lThigh
	{
		OFFSET 5.308129 -1.633274 1.361059 
		CHANNELS 3 Xrotation Zrotation Yrotation
		JOINT lShin
		{
			OFFSET -2.041588 -20.007561 0.000000 
			CHANNELS 3 Xrotation Zrotation Yrotation
			JOINT lFoot
			{
				OFFSET 0.000000 -19.190928 -1.224953 
				CHANNELS 3 Xrotation Yrotation Zrotation
				End Site
				{
					OFFSET 0.000000 -2.449906 4.627600 
				}
			}
		}
	}
	JOINT rThigh
	{
		OFFSET -5.308129 -1.633274 1.361059 
		CHANNELS 3 Xrotation Zrotation Yrotation
		JOINT rShin
		{
			OFFSET 2.041588 -20.007561 0.000000 
			CHANNELS 3 Xrotation Zrotation Yrotation
			JOINT rFoot
			{
				OFFSET 0.000000 -19.190928 -1.224953 
				CHANNELS 3 Xrotation Yrotation Zrotation
				End Site
				{
					OFFSET 0.000000 -2.449906 4.627600 
				}
			}
		}
	}
}
MOTION
Frames: 18
Frame Time: 0.033333
1.318254 42.016357 0.784402 -5.109641 4.361975 19.247561 0.000000 0.000000 0.000000 22.316727 -6.042602 -10.391186 -14.958350 1.155436 -6.143687 8.211863 4.619574 -5.212209 -3.521967 9.154817 6.304141 -45.866261 -28.550041 -15.470159 -99.786369 -5.790800 -17.545525 16.406609 2.274187 -9.320000 3.089181 -14.089146 8.026228 66.162895 24.936050 -40.580772 86.753510 15.968016 42.790359 -15.177340 -9.330294 -8.995980 -12.773462 16.005859 19.871895 64.843231 -2.977205 -24.390478 -31.269543 -6.634798 19.989410 -30.847403 -31.470076 -18.603218 58.561817 -5.790149 13.599417 -10.563856 0.540203 -4.368467 
1.094178 41.875130 1.254238 -4.838487 4.449149 19.769423 0.000000 0.000000 0.000000 21.918343 -6.608982 -9.950228 -14.775598 0.931302 -6.592669 8.258311 5.449902 -5.875942 -3.521967 9.154817 6.304141 -45.383686 -29.248632 -15.922064 -100.824295 -6.324043 -18.781792 16.529633 2.431798 -9.325630 3.089181 -14.089146 8.026228 66.822784 22.463469 -41.795750 86.727844 16.436789 42.891705 -15.786468 -9.294046 -9.008310 -12.692131 16.328791 19.593239 65.066399 -2.723761 -24.782803 -31.761335 -6.816812 20.199190 -30.515144 -32.640587 -20.340277 61.007824 -5.642450 10.344312 -13.853228 0.710303 -4.641630 
0.919774 41.744884 1.881138 -4.630570 4.634687 19.392239 0.000000 0.000000 0.000000 21.225918 -7.217494 -8.909621 -14.251309 0.426518 -6.963060 8.074368 6.382745 -6.662377 -3.521967 9.154817 6.304141 -45.304253 -29.454239 -15.919644 -102.258659 -6.890214 -20.925388 16.854694 2.625493 -9.330624 3.089181 -14.089146 8.026228 67.189362 19.719934 -42.618015 86.944450 16.832302 43.242691 -16.313120 -9.008585 -9.038200 -11.805104 16.606220 19.856688 64.987518 -2.704381 -23.730717 -32.702061 -7.068860 20.486576 -30.047901 -33.805851 -22.229034 63.834423 -5.857991 3.592113 -17.207176 0.742093 -4.058664 
0.841629 41.619720 2.648577 -4.375445 4.650663 18.481043 0.000000 0.000000 0.000000 20.168064 -7.666239 -7.657761 -14.263007 0.406583 -7.568515 8.481479 6.868711 -7.268669 -3.521967 9.154817 6.304141 -45.623070 -29.122786 -15.109673 -104.701714 -7.337256 -22.356112 16.957094 3.027873 -9.299966 3.089181 -14.089146 8.026228 67.120628 16.520811 -43.443653 86.873848 17.071903 44.185143 -16.338343 -8.273825 -9.091378 -10.330666 16.682520 20.357079 64.247314 -2.672676 -19.839407 -34.290367 -7.573345 20.967642 -29.295568 -34.789459 -24.047180 66.322609 -6.025039 -1.377426 -19.784231 0.651756 -3.528024 
0.888225 41.559448 3.740776 -4.326568 5.162387 17.455915 0.000000 0.000000 0.000000 19.011957 -8.136708 -6.787637 -13.958780 1.081993 -8.409643 8.639815 6.486165 -7.587604 -3.521967 9.154817 6.304141 -46.612076 -27.051132 -13.603510 -108.658432 -7.756362 -24.626123 16.194551 2.724133 -9.259073 3.089181 -14.089146 8.026228 66.757446 12.388488 -44.218315 86.628479 17.188475 46.111698 -15.700422 -6.808223 -9.181952 -8.153052 16.075083 20.343018 63.439316 -2.487171 -18.036602 -34.798859 -7.679279 21.039295 -27.870085 -35.989914 -24.915522 68.912109 -6.728328 -1.374674 -20.152727 0.733224 -3.672229 
0.872443 41.443829 5.276562 -4.729795 5.635611 16.596510 0.000000 0.000000 0.000000 17.504551 -7.604276 -6.720209 -12.488973 1.206715 -8.683401 8.281682 5.845401 -7.715194 -3.521967 9.154817 6.304141 -48.401035 -21.341106 -13.493064 -112.653519 -8.202739 -25.848993 13.597328 -0.138548 -9.191427 3.089181 -14.089146 8.026228 66.200447 7.718961 -44.410599 87.235588 17.387136 47.517277 -15.427075 -5.943637 -9.227249 -5.127106 15.826527 20.152609 62.476746 -2.287731 -16.848934 -35.064526 -7.633577 20.732893 -24.950834 -36.666874 -25.452272 72.223801 -7.831368 0.075513 -18.260721 0.701615 -3.823022 
0.813527 41.378746 7.146317 -4.848417 5.854222 14.481934 0.000000 0.000000 0.000000 14.515317 -6.187013 -6.798257 -9.759020 -0.426097 -7.412338 8.082578 5.472300 -7.367428 -3.521967 9.154817 6.304141 -51.874393 -9.866756 -15.803703 -113.250267 -8.728707 -24.169222 10.508114 -3.356811 -8.965430 3.089181 -14.089146 8.026228 64.872650 3.792504 -42.667854 87.812943 17.123951 45.935814 -16.152794 -6.092041 -9.253273 -1.514928 15.474585 20.353718 60.985878 -2.257099 -15.078787 -34.560024 -7.172793 19.803799 -22.235741 -35.900623 -24.234566 74.601746 -8.904897 3.215555 -14.326498 0.604663 -3.835855 
0.621855 41.367664 9.165112 -4.957262 4.892816 10.792268 0.000000 0.000000 0.000000 10.555136 -4.008683 -7.479445 -7.369923 -1.226335 -4.698487 9.605923 3.882037 -4.942777 -3.521967 9.154817 6.304141 -55.002689 4.832960 -19.134245 -107.060295 -8.977165 -19.064297 11.979159 -2.282243 -9.118396 3.089181 -14.089146 8.026228 63.095978 3.101062 -37.993332 86.274872 15.565436 44.298615 -16.903372 -6.214845 -9.275535 1.688267 15.437983 20.490808 60.252430 -1.817458 -11.452787 -32.516174 -6.033616 17.709606 -19.511677 -32.566551 -21.814547 73.562889 -9.325827 7.093513 -12.940865 0.652139 -4.422624 
0.261831 41.390652 11.047148 -5.100124 3.178338 7.140082 0.000000 0.000000 0.000000 7.418100 -0.540367 -8.848088 -7.378564 -2.811799 -1.281110 12.770715 2.078507 -2.227931 -3.521967 9.154817 6.304141 -57.585419 15.870705 -21.105141 -94.236786 -8.060701 -15.272952 15.327545 3.488886 -9.089839 3.089181 -14.089146 8.026228 59.776859 4.179601 -32.411251 87.772453 14.549216 44.501904 -16.869192 -7.849891 -9.147264 2.029038 15.679818 19.670017 63.615311 0.028092 -5.719840 -27.273800 -3.800686 13.590584 -15.302619 -27.867989 -20.531292 69.188591 -9.150312 3.605261 -24.083839 1.431263 -6.122303 
-0.084268 41.159580 12.247392 -4.965835 2.480529 5.063563 0.000000 0.000000 0.000000 5.257062 1.760827 -11.499441 -7.887568 -4.839129 2.508383 14.979839 1.728492 0.302891 -3.521967 9.154817 6.304141 -56.622910 18.342344 -17.229006 -86.533310 -6.841699 -15.367415 21.835075 7.793908 -9.135277 3.089181 -14.089146 8.026228 55.923477 11.287832 -26.204878 93.502647 14.394784 41.782219 -16.350487 -11.253408 -8.859174 -3.672466 15.657576 18.431410 73.736343 1.559030 -0.164760 -18.606886 -1.383208 6.827177 -11.327942 -25.461460 -20.698009 65.519508 -8.651260 1.167757 -39.401337 3.165187 -7.934426 
-0.108431 40.994587 12.713802 -6.013244 2.629302 4.301751 0.000000 0.000000 0.000000 6.015363 2.475753 -11.817819 -8.085580 -8.021993 4.535359 14.180008 4.648396 0.245712 -3.521967 9.154817 6.304141 -52.691364 5.764206 -6.591849 -91.643906 -4.713243 -9.108816 17.086393 4.399777 -9.170701 3.089181 -14.089146 8.026228 54.873787 25.556438 -19.998091 99.461555 13.087704 39.434372 -16.193838 -13.153845 -8.704667 -10.594365 14.614923 18.749990 81.385071 1.719672 -3.944086 -17.580715 -1.309642 7.045595 -11.942983 -26.127998 -19.972031 68.404861 -9.256734 2.181896 -32.423630 2.209495 -6.811245 
-0.282027 40.805302 13.168715 -7.722516 1.419009 5.587846 0.000000 0.000000 0.000000 10.562271 2.480080 -8.826514 -12.902421 -5.738806 1.972579 16.478603 3.397829 -1.085552 -3.521967 9.154817 6.304141 -48.114674 -25.217695 5.993985 -92.951859 -3.508770 2.011626 7.032697 -1.243577 -8.481676 3.089181 -14.089146 8.026228 54.314259 39.696793 -15.672323 108.870766 11.617215 38.992054 -13.170795 -9.679440 -8.944562 -17.167801 14.618840 20.741552 83.447723 0.596270 -6.609999 -23.841255 -2.553417 10.213451 -8.711473 -24.427692 -20.984840 68.264915 -8.872108 0.121169 -32.784542 2.144834 -6.602910 
-0.454418 40.918228 13.695527 -8.154119 0.928841 7.794156 0.000000 0.000000 0.000000 13.651741 0.932337 -6.016415 -17.598232 -1.932724 -1.719748 19.740183 1.151466 -2.236661 -3.521967 9.154817 6.304141 -64.348801 -58.944210 28.772987 -72.072075 -0.423556 20.445545 4.839596 -6.559278 -8.129197 3.089181 -14.089146 8.026228 55.352470 56.809151 -5.593577 114.302719 9.668496 38.329811 -9.843030 -8.111207 -8.900277 -25.134418 12.936768 21.748743 80.212677 -1.444517 -9.145750 -27.523804 -3.261338 11.456095 -4.063484 -24.392616 -24.698826 65.139343 -6.967471 0.872339 -37.680809 2.764262 -7.393373 
-0.644789 41.950916 14.251495 -8.227394 -0.028911 9.306639 0.000000 0.000000 0.000000 15.851944 1.621612 -6.105760 -23.949820 -1.268379 -2.442105 23.318632 0.712217 -2.490406 -3.521967 9.154817 6.304141 51.453865 -114.604675 -95.381203 -37.595978 10.053712 31.475929 5.717742 -4.379423 -8.277831 3.089181 -14.089146 8.026228 78.058792 75.117012 28.465139 108.961990 8.903950 42.919323 -6.081805 -6.492564 -8.773672 -30.940302 11.653518 21.148844 69.380775 -5.506310 -17.585865 -23.611433 -2.358037 9.564106 -2.120928 -22.447046 -25.540247 62.408970 -5.717853 0.904159 -29.445154 1.986534 -6.761275 
-1.051077 42.971272 15.136237 -8.220835 -1.320826 9.162428 0.000000 0.000000 0.000000 17.861044 3.260207 -7.854572 -31.744244 -1.190946 -1.592265 26.848579 0.790574 -1.914150 -3.521967 9.154817 6.304141 32.304417 -120.130486 -79.202621 -21.927935 16.174692 25.917810 2.802885 4.576022 -8.230305 3.089181 -14.089146 8.026228 -32.121586 105.215057 -75.558586 101.166138 7.720736 48.984921 -3.153998 -7.211308 -8.648759 -34.241196 11.176358 18.022606 55.810566 -8.794609 -22.332836 -13.708516 -0.189183 2.899402 0.036445 -19.155390 -24.843676 58.201748 -5.123491 0.795062 -25.547119 1.885858 -7.113744 
-1.337481 43.883945 16.872976 -9.152195 -2.922616 6.140739 0.000000 0.000000 0.000000 17.903835 -0.243057 -5.400466 -32.968063 3.593919 -4.187369 27.593204 -0.410122 -0.742238 -3.521967 9.154817 6.304141 53.603352 -122.519333 -84.631508 -32.167393 21.179346 21.584608 -0.407472 5.633576 -8.095833 3.089181 -14.089146 8.026228 -59.339432 110.182457 -99.210159 105.511047 5.587247 46.961063 -9.233894 -9.942799 -8.855918 -33.505798 12.255884 14.072542 45.001549 -8.351538 -24.815388 0.285842 0.273179 -7.085900 1.727036 -18.034132 -24.863083 57.138279 -4.700316 6.610463 -15.534900 1.058146 -6.506443 
-1.113327 43.900249 19.142694 -10.893983 -5.828814 -1.198139 0.000000 0.000000 0.000000 17.184164 -1.396470 -0.263832 -26.407896 5.294016 -3.295170 24.944597 -0.488237 0.771456 -3.521967 9.154817 6.304141 -86.203835 -52.893673 62.194595 -60.010269 16.133429 21.966902 6.384243 4.340057 -8.431951 3.089181 -14.089146 8.026228 88.664345 59.840160 49.344662 109.042984 3.480017 46.699936 -14.785462 -13.039548 -8.741111 -29.358564 15.716880 12.824553 42.502106 -5.433699 -23.855991 -0.302550 0.571712 -6.022974 -2.013450 -20.376833 -24.356579 64.691109 -6.633681 16.167683 4.681403 0.053497 -2.676827 
-0.766746 43.345261 21.138666 -11.689177 -9.579820 -12.146122 0.000000 0.000000 0.000000 15.523027 0.814985 6.533928 -17.287584 4.736328 -0.029197 20.440002 -1.111767 2.988666 -3.521967 9.154817 6.304141 -68.227623 -35.724941 34.914520 -72.655411 12.295900 19.371820 7.999332 8.285822 -8.567939 3.089181 -14.089146 8.026228 74.315636 46.230824 29.648775 100.477844 2.800647 51.986977 -18.922333 -15.456781 -8.443202 -26.806589 23.027254 17.433598 52.257732 -5.532274 -19.775400 -11.168874 -0.184956 1.502858 -11.542600 -21.567533 -20.392952 75.377945 -8.768123 20.838013 11.052213 -0.011033 -0.889581 
